<?xml version="1.0" standalone="no"?>
<!DOCTYPE svg PUBLIC "-//W3C//DTD SVG 20010904//EN"
 "http://www.w3.org/TR/2001/REC-SVG-20010904/DTD/svg10.dtd">
<svg version="1.0" xmlns="http://www.w3.org/2000/svg"
 width="3072.000000pt" height="978.000000pt" viewBox="0 0 3072.000000 978.000000"
 preserveAspectRatio="xMidYMid meet">
<metadata>
Created by potrace 1.16, written by Peter Selinger 2001-2019
</metadata>
<g transform="translate(0.000000,978.000000) scale(0.100000,-0.100000)"
fill="#312866" stroke="none">
<path d="M7240 8820 c-41 -5 -100 -15 -130 -23 -59 -16 -171 -63 -180 -75 -3
-5 -23 -19 -44 -32 -22 -13 -60 -43 -85 -67 -25 -23 -49 -43 -52 -43 -10 0
-95 -112 -135 -180 -41 -67 -60 -117 -89 -231 -19 -77 -17 -301 5 -379 90
-331 311 -554 626 -634 82 -21 277 -21 369 0 213 48 389 166 518 346 26 37 51
77 57 90 5 13 14 30 19 38 13 23 32 80 41 125 5 22 13 53 19 68 6 16 11 86 11
157 0 71 -5 141 -11 157 -6 15 -14 46 -19 68 -9 44 -28 102 -41 125 -5 8 -16
30 -24 49 -25 56 -128 193 -152 202 -13 5 -23 14 -23 22 0 12 -57 59 -125 102
-143 92 -355 136 -555 115z"/>
<path d="M20400 8820 c-98 -10 -164 -29 -270 -79 -35 -16 -163 -108 -211 -152
-54 -50 -160 -205 -185 -271 -47 -127 -55 -171 -55 -324 -1 -153 13 -242 47
-306 8 -14 14 -34 14 -45 0 -42 170 -272 235 -316 128 -88 178 -118 216 -132
213 -77 444 -75 645 4 140 55 317 209 404 353 26 42 60 117 60 130 0 5 6 24
14 41 35 77 46 303 22 432 -45 233 -199 448 -411 571 -133 77 -336 114 -525
94z"/>
<path d="M365 8668 c-3 -7 -4 -1122 -2 -2478 3 -2198 5 -2473 19 -2540 9 -41
21 -102 28 -135 20 -103 47 -191 101 -336 16 -42 29 -82 29 -89 0 -7 6 -21 13
-29 7 -9 22 -36 32 -61 10 -25 24 -51 29 -59 6 -8 20 -35 31 -60 29 -65 123
-210 241 -369 97 -133 299 -350 394 -425 25 -19 75 -59 112 -89 127 -101 255
-183 443 -283 33 -18 74 -39 90 -48 48 -26 154 -72 245 -106 47 -18 99 -39
115 -46 45 -20 95 -36 140 -46 39 -8 209 -49 290 -70 228 -58 947 -60 1165 -3
30 8 100 23 154 34 54 10 104 24 110 30 5 5 24 10 41 10 16 0 43 7 59 15 15 8
37 15 47 15 10 0 20 4 23 9 3 5 38 19 78 31 40 13 87 29 103 36 107 46 139 61
215 97 440 211 881 602 1150 1021 59 92 52 78 205 386 12 25 30 69 40 99 10
29 24 65 31 80 8 14 14 36 14 48 0 13 6 40 13 60 35 99 47 144 47 181 0 22 5
53 11 69 6 15 15 60 20 98 5 39 13 97 18 130 13 82 13 435 0 515 -5 36 -14 97
-19 135 -27 209 -96 454 -178 638 -12 27 -22 52 -22 55 0 4 -9 25 -21 47 -89
169 -113 212 -125 226 -8 8 -14 19 -14 23 0 25 -152 234 -270 371 -190 221
-472 449 -755 612 -85 49 -321 163 -338 163 -7 0 -21 7 -31 15 -11 8 -28 15
-39 15 -10 0 -33 6 -50 13 -53 23 -100 39 -137 47 -19 4 -60 15 -90 24 -147
46 -353 82 -535 96 -66 4 -164 13 -217 20 -71 8 -129 8 -220 0 -68 -6 -175
-15 -238 -20 -111 -9 -226 -26 -320 -48 -25 -6 -81 -18 -125 -27 -44 -9 -93
-23 -108 -31 -16 -8 -35 -14 -44 -14 -20 0 -156 -47 -223 -77 -92 -42 -159
-65 -170 -58 -7 4 -10 351 -10 1035 0 565 -3 1035 -6 1044 -6 14 -85 16 -795
16 -623 0 -791 -3 -794 -12z m3121 -3283 c27 -8 66 -15 86 -15 21 0 79 -14
130 -31 420 -138 758 -461 887 -847 17 -51 31 -102 31 -112 0 -10 7 -45 15
-77 20 -78 21 -322 0 -389 -8 -27 -15 -62 -15 -79 0 -16 -12 -61 -26 -100 -14
-38 -29 -81 -34 -95 -13 -42 -62 -133 -92 -171 -15 -20 -28 -40 -28 -44 0 -4
-13 -24 -30 -45 -16 -21 -30 -42 -30 -46 -1 -15 -190 -197 -260 -251 -145
-112 -333 -206 -465 -233 -22 -4 -67 -14 -100 -21 -37 -8 -132 -13 -250 -13
-160 0 -206 4 -295 23 -58 12 -119 29 -137 37 -17 8 -34 14 -38 14 -23 0 -223
108 -293 158 -134 96 -347 315 -383 394 -5 13 -23 46 -39 73 -52 88 -98 196
-110 260 -4 22 -12 60 -18 85 -36 149 -40 246 -17 405 24 169 80 332 155 450
14 22 27 45 30 52 14 33 143 183 221 257 129 123 255 203 439 278 111 46 149
58 218 69 31 5 75 13 97 18 69 15 296 13 351 -4z"/>
<path d="M27457 8614 c-4 -4 -7 -442 -7 -973 0 -591 -4 -972 -10 -981 -8 -13
-63 -16 -357 -20 l-348 -5 -12 -58 c-6 -32 -20 -89 -31 -125 -12 -37 -23 -80
-26 -97 -3 -16 -15 -61 -27 -100 -11 -38 -24 -90 -28 -115 -8 -48 -25 -104
-47 -158 -8 -18 -14 -44 -14 -58 0 -14 -13 -72 -29 -127 -16 -56 -34 -122 -40
-147 -6 -25 -20 -76 -31 -115 -11 -38 -20 -79 -20 -90 0 -11 -7 -33 -15 -49
-8 -15 -16 -54 -18 -85 l-2 -56 525 -5 525 -5 5 -1115 c4 -816 9 -1126 18
-1155 6 -22 12 -58 12 -80 0 -22 7 -51 15 -65 8 -14 15 -45 15 -70 1 -25 7
-63 15 -85 8 -22 15 -48 15 -57 0 -9 6 -29 14 -45 8 -15 22 -55 32 -88 10 -33
23 -71 30 -85 83 -172 121 -244 154 -290 22 -30 55 -78 74 -105 66 -96 241
-255 376 -344 89 -58 147 -89 295 -156 74 -34 226 -83 280 -92 22 -3 48 -10
59 -15 10 -5 59 -16 110 -25 50 -8 134 -22 186 -30 112 -19 660 -30 701 -15
20 8 29 23 43 74 9 34 22 77 27 93 21 62 41 131 48 170 4 22 12 49 18 60 5 11
18 52 27 90 10 39 24 90 32 115 12 41 57 192 89 300 7 25 16 60 20 77 3 18 11
35 16 38 5 4 9 15 9 27 0 18 45 185 71 263 23 67 41 133 49 179 5 27 14 54 20
60 12 12 13 66 1 66 -5 0 -22 -6 -38 -14 -15 -8 -78 -22 -139 -31 -183 -28
-545 -10 -627 31 -16 8 -34 14 -41 14 -16 0 -120 54 -187 98 -86 56 -155 158
-201 297 l-23 70 0 920 0 920 342 3 342 2 20 26 c12 15 21 38 21 53 0 14 6 46
14 71 18 58 35 125 45 175 4 22 12 49 17 60 6 11 19 58 28 105 10 47 23 96 28
110 11 27 20 62 39 150 6 30 17 71 24 90 7 19 20 69 30 110 10 41 26 107 37
145 10 39 24 88 29 110 6 22 17 63 26 91 29 97 79 88 -507 94 -283 3 -521 9
-527 13 -10 6 -13 212 -13 970 0 529 -4 967 -8 973 -8 13 -1583 30 -1595 18z"/>
<path d="M11160 7014 c-8 -2 -69 -11 -135 -19 -66 -8 -145 -20 -175 -26 -116
-22 -196 -41 -230 -54 -19 -7 -64 -21 -100 -31 -36 -10 -74 -24 -85 -31 -11
-7 -26 -13 -33 -13 -13 0 -77 -26 -237 -98 -33 -15 -127 -67 -210 -116 -476
-282 -840 -669 -1087 -1156 -106 -210 -193 -452 -241 -675 -79 -362 -92 -729
-35 -1030 6 -33 15 -80 19 -105 21 -116 45 -209 105 -405 74 -237 206 -492
399 -765 182 -258 499 -549 785 -719 58 -34 112 -67 120 -72 8 -5 36 -20 62
-33 26 -12 53 -27 60 -33 7 -5 33 -17 58 -27 25 -10 56 -24 70 -31 14 -7 53
-22 88 -34 34 -12 70 -25 80 -31 26 -14 221 -71 372 -109 25 -6 95 -19 155
-29 103 -16 334 -17 3490 -17 3147 0 3389 1 3508 17 71 10 133 20 139 24 5 4
35 10 66 15 101 14 158 27 196 43 21 9 47 16 58 16 17 0 267 80 313 100 11 5
45 19 75 31 120 47 307 139 368 180 24 16 45 29 47 29 7 0 92 66 173 133 76
65 91 99 55 128 -15 13 -127 152 -310 384 -34 44 -125 159 -200 255 -76 96
-147 187 -158 201 -94 124 -210 259 -219 256 -6 -3 -56 -38 -111 -79 -55 -41
-120 -85 -145 -98 -141 -73 -220 -110 -242 -110 -7 0 -22 -7 -32 -15 -11 -8
-29 -15 -40 -15 -22 0 -123 -22 -216 -47 -44 -12 -101 -14 -270 -11 -122 3
-228 9 -245 16 -16 6 -66 19 -110 28 -44 10 -90 23 -102 31 -12 7 -27 13 -33
13 -6 0 -54 21 -107 47 -279 134 -485 341 -614 613 -34 70 -43 92 -82 195 -8
22 -22 74 -30 115 -9 41 -21 98 -28 125 -18 69 -18 503 0 565 7 25 19 70 28
100 23 82 109 267 142 305 9 11 25 32 34 47 9 15 58 70 108 123 220 229 456
358 767 416 84 16 394 16 512 1 257 -34 535 -147 733 -299 64 -49 96 -52 118
-10 7 12 76 108 155 213 78 106 150 205 160 220 10 16 26 37 36 47 10 10 29
35 42 55 13 20 76 107 139 192 63 85 133 179 154 208 21 29 53 72 72 95 74 93
74 102 -1 153 -24 16 -59 41 -78 56 -87 67 -279 173 -509 280 -53 25 -135 57
-176 68 -32 9 -85 27 -125 43 -36 14 -129 38 -170 43 -19 3 -48 12 -65 19 -16
8 -82 21 -145 30 -63 9 -137 20 -165 26 -145 29 -723 35 -845 8 -25 -5 -76
-14 -115 -18 -105 -13 -204 -31 -255 -46 -25 -7 -81 -21 -125 -31 -44 -10 -91
-24 -105 -31 -14 -7 -33 -13 -42 -13 -18 0 -79 -21 -133 -46 -16 -7 -58 -23
-93 -35 -34 -12 -65 -26 -68 -30 -3 -5 -16 -9 -29 -9 -13 0 -26 -4 -29 -9 -7
-10 -82 -51 -94 -51 -14 0 -225 -124 -322 -189 -215 -144 -386 -300 -550 -501
-25 -30 -49 -58 -53 -61 -5 -3 -16 -18 -25 -32 -9 -14 -47 -70 -83 -124 -90
-135 -189 -317 -249 -458 -12 -27 -25 -59 -30 -70 -20 -45 -64 -175 -85 -255
-13 -47 -27 -96 -33 -110 -6 -14 -17 -72 -26 -130 -9 -58 -24 -134 -32 -170
-12 -50 -17 -142 -21 -390 -5 -311 2 -447 26 -545 5 -22 17 -80 26 -130 9 -49
22 -106 29 -125 8 -19 19 -59 26 -89 7 -30 26 -82 41 -117 16 -35 29 -68 29
-74 0 -10 16 -47 88 -200 45 -97 154 -277 227 -376 6 -9 6 -17 0 -23 -26 -24
-1285 -13 -1285 11 0 5 15 29 33 53 17 24 39 56 49 72 9 15 33 55 53 88 56 90
134 234 155 286 19 46 49 117 75 174 8 17 21 55 30 85 10 30 21 69 27 85 5 17
18 64 29 105 11 41 26 96 34 121 8 26 15 56 15 68 0 11 6 56 14 98 61 334 59
565 -8 973 -19 114 -64 299 -82 332 -8 14 -14 33 -14 41 0 8 -14 50 -31 93
-17 44 -36 92 -43 108 -12 32 -113 234 -168 336 -59 109 -205 313 -306 427
-109 124 -298 302 -410 387 -187 142 -379 258 -552 333 -19 8 -44 20 -55 26
-23 12 -152 60 -240 88 -33 11 -73 24 -90 30 -81 29 -254 64 -440 89 -115 15
-202 20 -370 19 -121 -1 -227 -3 -235 -5z m503 -1240 c32 -8 69 -14 82 -14 14
0 44 -6 67 -14 24 -7 73 -23 111 -35 37 -11 75 -25 85 -30 9 -6 49 -26 87 -44
126 -62 177 -94 290 -182 90 -70 264 -247 310 -315 17 -25 45 -65 63 -89 41
-55 163 -307 187 -386 10 -33 23 -78 30 -100 54 -168 53 -695 -1 -782 -8 -12
-14 -31 -14 -42 0 -26 -26 -108 -45 -143 -8 -14 -15 -32 -15 -40 0 -16 -91
-195 -135 -264 -52 -81 -162 -214 -243 -292 -233 -226 -524 -374 -856 -437
-75 -14 -128 -16 -315 -12 -216 6 -316 18 -401 47 -85 30 -117 40 -128 40 -18
0 -210 93 -255 124 -21 14 -40 26 -42 26 -10 0 -106 70 -180 131 -105 88 -238
228 -288 304 -14 22 -39 58 -55 80 -30 42 -115 213 -127 255 -4 14 -11 30 -15
35 -4 6 -17 44 -29 85 -12 41 -26 82 -31 91 -5 9 -11 38 -15 65 -4 27 -13 84
-21 128 -18 100 -17 278 1 381 8 44 15 94 15 110 0 44 57 240 91 312 16 35 29
66 29 70 0 10 65 133 104 199 131 217 373 442 616 571 62 33 202 93 217 93 7
0 27 6 45 14 43 18 126 41 208 57 145 29 461 31 573 3z"/>
<path d="M11155 5354 c-186 -46 -301 -94 -437 -183 -157 -102 -306 -264 -396
-429 -134 -248 -180 -613 -106 -851 8 -25 14 -54 14 -66 0 -24 55 -156 95
-230 54 -99 72 -123 196 -269 27 -32 165 -141 219 -173 123 -74 280 -138 373
-153 36 -5 78 -15 92 -20 44 -17 321 -12 400 6 357 85 585 237 785 523 34 48
116 210 124 244 3 15 11 27 16 27 6 0 10 11 10 24 0 14 5 37 11 53 41 108 60
346 35 452 -8 36 -17 86 -21 111 -8 57 -48 175 -93 270 -78 164 -260 375 -412
475 -97 64 -240 135 -310 152 -30 8 -82 21 -115 30 -86 22 -398 27 -480 7z
m210 -196 c210 -121 326 -236 443 -436 65 -109 132 -314 132 -404 1 -23 5 -63
10 -88 6 -31 4 -83 -6 -165 -21 -165 -36 -218 -95 -340 -16 -33 -29 -63 -29
-67 0 -12 -75 -124 -121 -180 -101 -125 -201 -206 -347 -282 l-94 -48 -96 17
c-88 15 -224 62 -262 89 -8 6 -33 20 -55 31 -102 49 -277 219 -352 340 -139
222 -183 452 -145 740 4 33 13 69 19 80 5 11 13 35 17 54 9 51 88 211 136 277
85 118 257 273 340 309 25 10 52 25 61 32 8 7 21 13 27 13 6 0 35 11 64 24 83
39 117 46 208 42 76 -3 91 -7 145 -38z"/>
<path d="M23679 6716 c-2 -2 -51 -9 -109 -16 -58 -6 -132 -18 -166 -26 -33 -8
-79 -14 -102 -14 -24 0 -59 -7 -79 -15 -19 -8 -46 -15 -60 -15 -13 0 -33 -5
-44 -11 -11 -6 -41 -14 -67 -19 -26 -4 -85 -23 -132 -40 -47 -18 -102 -39
-123 -47 -40 -14 -207 -94 -242 -116 -11 -6 -39 -24 -63 -39 -24 -16 -46 -28
-49 -28 -3 0 -19 -12 -37 -26 -17 -14 -62 -50 -101 -80 -112 -89 -201 -181
-290 -299 -45 -60 -85 -117 -88 -125 -4 -8 -16 -28 -27 -45 -11 -16 -24 -39
-29 -50 -5 -11 -27 -59 -50 -106 -22 -48 -41 -94 -41 -102 0 -8 -7 -20 -15
-27 -8 -7 -15 -22 -15 -34 -1 -11 -7 -32 -15 -46 -8 -14 -14 -35 -15 -47 0
-12 -6 -37 -14 -55 -8 -18 -22 -69 -31 -113 -9 -44 -23 -107 -30 -140 -7 -33
-21 -130 -30 -215 -15 -139 -16 -326 -13 -1800 l3 -1645 788 -3 c530 -1 794 1
807 8 19 10 20 40 23 1648 2 1308 5 1646 16 1682 7 25 19 70 27 100 31 116 91
222 163 290 41 39 110 90 121 90 6 0 18 4 28 10 72 41 122 50 288 50 173 0
207 -6 324 -59 47 -22 149 -112 191 -171 32 -45 69 -117 69 -135 0 -8 6 -29
14 -47 55 -133 51 22 54 -1788 2 -1530 4 -1656 19 -1667 13 -10 189 -13 799
-13 430 0 789 3 798 6 15 6 16 155 16 1593 -1 1622 -3 1708 -40 1976 -18 127
-79 383 -111 460 -4 11 -11 31 -14 45 -10 38 -94 216 -138 295 -95 168 -264
365 -422 492 -76 61 -214 153 -230 153 -8 0 -17 4 -20 10 -6 10 -165 90 -178
90 -4 0 -30 11 -57 24 -28 14 -83 35 -123 47 -40 12 -79 25 -87 30 -8 4 -51
15 -95 24 -44 10 -100 24 -124 31 -25 8 -58 14 -75 14 -17 0 -62 6 -101 14
-133 28 -330 46 -491 46 -88 0 -163 -2 -165 -4z"/>
<path d="M6650 6531 l-75 -6 -3 -2569 c-2 -2049 0 -2571 10 -2578 19 -11 1551
-10 1582 2 l26 10 0 2555 c0 1743 -3 2562 -10 2576 -10 19 -28 19 -733 17
-397 -1 -756 -4 -797 -7z"/>
<path d="M19830 6531 l-85 -6 -3 -2571 -2 -2572 57 -5 c91 -7 1350 -9 1452 -1
l91 7 0 2572 c0 2337 -1 2573 -16 2579 -19 7 -1376 4 -1494 -3z"/>
<path d="M22773 968 c-41 -20 -45 -97 -7 -127 56 -44 124 -10 124 60 0 62 -58
96 -117 67z"/>
<path d="M29567 968 c-9 -7 -23 -26 -31 -43 -14 -27 -14 -32 1 -55 39 -59 87
-67 127 -19 33 38 33 69 1 103 -26 28 -70 35 -98 14z"/>
<path d="M23489 948 c-1 -7 -1 -44 0 -83 2 -77 -1 -83 -44 -105 -21 -11 -34
-28 -44 -58 -17 -56 -10 -72 32 -72 19 0 39 -6 44 -12 6 -7 10 -63 11 -124 0
-130 11 -161 74 -201 81 -51 168 -41 168 19 0 17 7 40 16 50 23 24 3 48 -42
48 -55 0 -65 19 -62 124 l3 91 28 3 c36 4 59 41 55 89 -3 35 -5 38 -38 41 -19
2 -38 9 -42 15 -4 7 -8 51 -8 100 l0 87 -75 0 c-53 0 -75 -4 -76 -12z"/>
<path d="M25320 881 c0 -44 -2 -85 -5 -93 -4 -10 -28 -12 -104 -10 -89 3 -103
1 -148 -21 -86 -44 -136 -115 -148 -209 -15 -120 46 -211 177 -264 83 -33 156
-30 233 11 52 28 115 82 115 99 0 5 7 17 16 27 13 14 16 57 18 266 2 136 1
254 -1 261 -4 8 -29 12 -79 12 l-74 0 0 -79z m-72 -252 c91 -31 90 -164 -1
-211 -36 -18 -45 -19 -81 -7 -67 21 -86 44 -86 106 0 66 12 90 53 108 39 17
74 18 115 4z"/>
<path d="M27479 823 c0 -144 -10 -203 -24 -151 -9 36 -65 84 -113 99 -25 7
-68 9 -118 5 -93 -8 -132 -8 -237 0 -112 8 -167 -17 -208 -98 -17 -33 -19 -60
-19 -223 l0 -185 75 0 75 0 0 165 c0 156 1 165 22 185 26 24 61 26 82 4 13
-13 16 -43 16 -172 0 -86 4 -163 9 -170 5 -9 28 -12 77 -10 l69 3 5 168 c5
152 7 170 24 183 11 8 33 14 48 14 43 0 51 -33 53 -210 l1 -155 74 0 75 0 5
84 c5 91 21 114 39 58 14 -41 71 -98 131 -128 99 -50 257 -21 337 63 34 35 73
126 73 169 0 90 -69 193 -160 239 -37 19 -56 21 -142 18 -118 -4 -120 -1 -115
94 2 35 2 69 0 76 -4 8 -29 12 -79 12 l-74 0 -1 -137z m365 -202 c6 -6 22 -31
35 -56 l23 -46 -28 -46 c-37 -59 -85 -79 -146 -60 -55 16 -88 58 -88 109 0 34
7 47 40 81 40 39 41 40 96 34 30 -3 61 -10 68 -16z"/>
<path d="M28656 944 c-3 -9 -6 -100 -6 -202 0 -203 -10 -252 -29 -152 -10 52
-19 69 -57 107 -63 63 -112 83 -206 83 -121 0 -194 -38 -255 -134 -23 -35 -26
-50 -25 -127 1 -81 3 -91 31 -129 35 -49 58 -67 131 -104 52 -27 58 -28 156
-22 55 4 171 7 257 7 178 0 171 -4 166 92 -3 79 -1 97 16 97 9 0 18 -13 22
-32 8 -38 71 -104 133 -138 44 -24 50 -25 219 -22 96 2 178 5 183 8 4 3 8 70
8 149 0 169 -10 205 -78 274 -56 58 -115 81 -208 81 -118 0 -213 -57 -253
-151 -37 -84 -45 -61 -45 132 -1 96 -5 180 -9 187 -13 19 -143 16 -151 -4z
m-210 -345 c34 -32 35 -118 2 -149 -42 -39 -88 -53 -131 -39 -107 35 -117 167
-15 220 28 15 38 15 76 3 25 -7 55 -23 68 -35z m735 25 c33 -16 59 -66 59
-110 0 -37 -40 -86 -82 -102 -31 -11 -43 -10 -84 5 -39 14 -53 26 -67 56 -16
32 -17 42 -7 74 15 46 45 80 74 86 45 9 78 6 107 -9z m-531 -219 c0 -8 -4 -17
-10 -20 -6 -4 -10 5 -10 20 0 15 4 24 10 20 6 -3 10 -12 10 -20z"/>
<path d="M22414 757 c-57 -31 -88 -57 -106 -92 -8 -16 -22 -44 -32 -62 -30
-59 -15 -162 36 -235 11 -15 47 -44 81 -65 58 -35 67 -37 143 -37 63 0 91 5
127 23 59 29 63 57 13 107 l-34 34 -50 -15 c-45 -14 -55 -14 -84 -1 -46 21
-66 38 -78 70 -41 108 70 190 193 141 22 -9 87 59 87 91 0 60 -207 89 -296 41z"/>
<path d="M23035 763 c-93 -48 -104 -80 -107 -306 l-3 -182 80 0 80 0 5 166 c6
200 17 223 90 186 25 -12 25 -13 30 -182 l5 -170 78 -3 77 -3 0 189 c0 117 -4
192 -10 198 -6 6 -19 26 -29 45 -28 54 -88 79 -186 79 -53 -1 -90 -6 -110 -17z"/>
<path d="M23925 756 c-27 -13 -62 -36 -76 -52 -126 -137 -92 -324 76 -412 49
-27 52 -27 225 -24 96 2 179 7 184 12 5 5 7 81 4 169 -4 132 -8 164 -21 179
-9 10 -17 23 -17 28 0 19 -75 83 -120 103 -67 30 -188 29 -255 -3z m189 -130
c41 -17 66 -51 66 -89 0 -85 -78 -147 -156 -125 -64 19 -84 43 -84 103 0 101
79 151 174 111z"/>
<path d="M24467 759 c-53 -28 -77 -71 -77 -139 0 -90 31 -124 140 -155 72 -20
97 -40 79 -62 -17 -19 -105 -17 -141 5 -28 16 -30 16 -43 -3 -8 -11 -23 -29
-35 -41 -12 -12 -18 -27 -14 -37 16 -42 167 -78 251 -59 48 11 106 55 122 92
26 62 12 149 -30 184 -25 22 -94 47 -154 58 -14 2 -20 11 -20 28 0 21 5 25 30
24 17 0 45 -4 62 -8 29 -7 37 -4 64 23 43 44 36 68 -26 92 -67 25 -158 24
-208 -2z"/>
<path d="M25650 760 c-46 -23 -120 -97 -120 -119 0 -10 -7 -26 -15 -37 -23
-31 -19 -123 9 -186 22 -49 87 -118 112 -118 4 0 16 -8 26 -17 15 -13 38 -17
106 -17 73 0 93 4 125 23 47 29 48 57 6 106 -34 38 -53 43 -87 20 -43 -31
-152 21 -152 72 l0 23 188 2 187 3 3 33 c7 72 -82 187 -168 216 -61 21 -175
19 -220 -4z m179 -129 c27 -17 -1 -31 -64 -31 -66 0 -88 11 -58 29 22 13 103
14 122 2z"/>
<path d="M26333 755 c-52 -26 -123 -100 -123 -129 0 -8 -4 -18 -10 -21 -13 -8
-13 -136 1 -172 18 -47 74 -107 130 -138 47 -26 64 -29 129 -29 58 1 85 6 118
24 38 20 43 26 37 47 -8 34 -44 81 -67 89 -10 3 -32 -2 -50 -10 -26 -13 -38
-14 -70 -4 -40 12 -92 62 -85 82 2 7 66 13 193 16 l189 5 3 33 c4 41 -55 151
-95 178 -93 63 -210 74 -300 29z m193 -128 c16 -16 -14 -27 -71 -27 -68 0 -92
14 -53 30 23 10 114 8 124 -3z"/>
<path d="M29865 758 c-48 -25 -97 -73 -120 -119 -24 -45 -22 -198 2 -237 30
-49 67 -84 118 -110 68 -36 178 -37 243 -3 52 28 55 56 11 106 -35 40 -45 42
-92 19 -32 -15 -38 -15 -80 1 -46 17 -74 52 -64 79 6 14 32 16 186 16 169 0
180 1 186 20 7 23 -18 115 -38 134 -7 8 -25 27 -39 44 -40 47 -108 72 -197 72
-57 -1 -86 -6 -116 -22z m191 -131 c16 -16 -13 -27 -71 -27 -66 0 -88 11 -58
30 18 11 118 9 129 -3z"/>
<path d="M22805 760 l-60 -5 0 -240 0 -240 73 0 74 0 -1 205 c0 113 -1 221 -1
241 0 43 -6 46 -85 39z"/>
<path d="M29546 751 c-12 -13 -16 -62 -18 -250 -3 -217 -4 -234 -22 -247 -11
-8 -32 -14 -48 -14 -23 0 -28 -4 -28 -24 0 -14 5 -28 10 -31 6 -3 10 -16 10
-28 0 -36 28 -67 60 -67 33 0 119 41 142 67 26 30 30 69 34 330 3 189 0 253
-9 261 -7 5 -36 12 -64 14 -40 4 -56 1 -67 -11z"/>
</g>
</svg>
