<?xml version="1.0" standalone="no"?>
<!DOCTYPE svg PUBLIC "-//W3C//DTD SVG 20010904//EN"
 "http://www.w3.org/TR/2001/REC-SVG-20010904/DTD/svg10.dtd">
<svg version="1.0" xmlns="http://www.w3.org/2000/svg"
 width="1200.000000pt" height="1200.000000pt" viewBox="0 0 1200.000000 1200.000000"
 preserveAspectRatio="xMidYMid meet">
<metadata>
Created by potrace 1.16, written by Peter Selinger 2001-2019
</metadata>
<g transform="translate(0.000000,1200.000000) scale(0.100000,-0.100000)"
fill="#312866" stroke="none">
<path d="M5465 11770 c-348 -34 -579 -73 -895 -151 -832 -206 -1618 -605
-2280 -1158 -1023 -855 -1711 -2007 -1970 -3299 -129 -644 -147 -1366 -50
-2032 259 -1786 1355 -3351 2965 -4232 564 -309 1243 -534 1895 -628 562 -82
1178 -82 1740 0 1396 202 2675 922 3591 2020 615 738 1030 1606 1219 2548 129
644 147 1366 50 2032 -259 1786 -1355 3351 -2965 4232 -672 368 -1421 591
-2245 669 -272 25 -790 25 -1055 -1z m763 -150 c1296 -68 2481 -537 3452
-1366 149 -128 450 -428 574 -574 745 -875 1208 -1941 1336 -3075 79 -703 24
-1377 -172 -2095 -214 -788 -619 -1550 -1164 -2190 -124 -146 -425 -446 -574
-574 -871 -743 -1941 -1208 -3075 -1336 -414 -46 -796 -46 -1210 0 -1134 128
-2204 593 -3075 1336 -149 128 -450 428 -574 574 -745 875 -1208 1941 -1336
3075 -46 414 -46 796 0 1210 128 1134 591 2200 1336 3075 124 146 425 446 574
574 960 820 2158 1298 3420 1365 228 12 272 12 488 1z"/>
<path d="M5635 11499 c-1075 -71 -2088 -442 -2929 -1074 -564 -423 -1028 -928
-1398 -1520 -738 -1182 -992 -2660 -698 -4064 127 -609 374 -1227 698 -1746
313 -501 713 -961 1167 -1340 673 -563 1506 -966 2365 -1145 1575 -328 3200
24 4454 965 564 423 1028 928 1398 1520 738 1182 992 2660 698 4064 -127 609
-374 1227 -698 1746 -313 501 -713 961 -1167 1340 -986 824 -2241 1271 -3550
1263 -121 0 -274 -4 -340 -9z m900 -179 c453 -51 808 -130 1220 -273 835 -287
1641 -819 2215 -1462 685 -768 1144 -1729 1310 -2747 50 -309 64 -487 64 -838
0 -351 -14 -529 -64 -838 -202 -1238 -845 -2402 -1765 -3193 -778 -669 -1733
-1109 -2735 -1258 -310 -46 -443 -55 -780 -55 -337 0 -470 9 -780 55 -1002
149 -1957 589 -2735 1258 -920 791 -1563 1955 -1765 3193 -50 309 -64 487 -64
838 0 351 14 529 64 838 166 1018 625 1979 1310 2747 680 761 1639 1336 2665
1598 300 77 723 143 1035 161 167 10 631 -4 805 -24z"/>
<path d="M2032 8903 l-323 -3 3 -1883 3 -1882 28 -135 c111 -534 427 -995 897
-1309 439 -294 901 -446 1355 -444 575 1 1131 241 1592 686 184 179 310 346
422 559 235 451 278 1038 111 1548 -124 381 -391 746 -734 1004 -467 351
-1072 515 -1666 451 -241 -26 -497 -90 -677 -169 -45 -20 -86 -36 -92 -36 -8
0 -12 237 -13 808 l-3 807 -290 0 c-159 0 -435 -1 -613 -2z m2201 -2322 c145
-31 267 -82 402 -169 581 -372 746 -1118 378 -1700 -51 -80 -162 -211 -225
-264 -281 -239 -660 -349 -999 -292 -397 67 -738 320 -920 683 -90 180 -125
354 -116 585 9 229 51 384 155 561 200 343 524 556 937 619 69 10 293 -3 388
-23z"/>
<path d="M3795 6266 c-185 -43 -309 -110 -449 -245 -119 -115 -186 -224 -242
-391 -26 -80 -28 -95 -28 -255 0 -160 2 -175 28 -255 101 -305 298 -509 585
-606 114 -39 227 -52 363 -42 129 9 200 29 335 94 95 46 125 66 202 140 105
99 145 151 195 250 71 142 99 255 100 409 1 231 -68 422 -218 596 -113 131
-250 224 -416 280 -87 29 -108 32 -245 35 -104 3 -169 -1 -210 -10z m320 -471
c184 -32 334 -112 470 -249 69 -69 101 -111 133 -173 53 -102 55 -147 11 -265
-62 -170 -161 -298 -305 -394 -271 -180 -576 -190 -859 -26 -33 19 -103 78
-156 132 -83 83 -103 110 -142 191 -46 94 -77 193 -77 244 0 15 16 60 36 99
91 179 253 321 449 395 156 59 285 73 440 46z"/>
<path d="M8390 7709 c-237 -22 -535 -103 -766 -208 -628 -283 -1057 -803
-1223 -1484 -87 -355 -89 -800 -6 -1119 100 -386 293 -719 572 -989 369 -358
831 -570 1400 -641 124 -16 531 -16 643 -1 520 74 964 246 1225 477 37 34 47
47 39 58 -24 31 -170 216 -310 393 -83 105 -201 255 -264 335 -62 80 -118 151
-125 158 -9 10 -26 1 -81 -41 -135 -105 -263 -168 -434 -213 -77 -21 -127 -27
-261 -31 -298 -10 -468 36 -691 189 -239 163 -391 417 -448 746 -46 265 -11
512 101 711 127 226 379 421 629 489 380 103 827 17 1118 -216 37 -29 46 -33
57 -21 7 8 115 154 241 324 125 171 268 366 318 433 50 68 96 131 101 139 8
11 2 21 -25 44 -123 104 -411 261 -608 332 -189 68 -406 118 -591 137 -118 11
-484 11 -611 -1z"/>
</g>
</svg>
