<svg xmlns="http://www.w3.org/2000/svg" width="3072" height="880" viewBox="0 0 3072 880" preserveAspectRatio="xMidYMid meet">
<g transform="translate(0,978) scale(0.1,-0.1)" fill="#ffffff" stroke="none">
<path d="M7240 8820 c-41 -5 -100 -15 -130 -23 -59 -16 -171 -63 -180 -75 -3
-5 -23 -19 -44 -32 -22 -13 -60 -43 -85 -67 -25 -23 -49 -43 -52 -43 -10 0
-95 -112 -135 -180 -41 -67 -60 -117 -89 -231 -19 -77 -17 -301 5 -379 90
-331 311 -554 626 -634 82 -21 277 -21 369 0 213 48 389 166 518 346 26 37 51
77 57 90 5 13 14 30 19 38 13 23 32 80 41 125 5 22 13 53 19 68 6 16 11 86 11
157 0 71 -5 141 -11 157 -6 15 -14 46 -19 68 -9 44 -28 102 -41 125 -5 8 -16
30 -24 49 -25 56 -128 193 -152 202 -13 5 -23 14 -23 22 0 12 -57 59 -125 102
-143 92 -355 136 -555 115z"/>
<path d="M20400 8820 c-98 -10 -164 -29 -270 -79 -35 -16 -163 -108 -211 -152
-54 -50 -160 -205 -185 -271 -47 -127 -55 -171 -55 -324 -1 -153 13 -242 47
-306 8 -14 14 -34 14 -45 0 -42 170 -272 235 -316 128 -88 178 -118 216 -132
213 -77 444 -75 645 4 140 55 317 209 404 353 26 42 60 117 60 130 0 5 6 24
14 41 35 77 46 303 22 432 -45 233 -199 448 -411 571 -133 77 -336 114 -525
94z"/>
<path d="M365 8668 c-3 -7 -4 -1122 -2 -2478 3 -2198 5 -2473 19 -2540 9 -41
21 -102 28 -135 20 -103 47 -191 101 -336 16 -42 29 -82 29 -89 0 -7 6 -21 13
-29 7 -9 22 -36 32 -61 10 -25 24 -51 29 -59 6 -8 20 -35 31 -60 29 -65 123
-210 241 -369 97 -133 299 -350 394 -425 25 -19 75 -59 112 -89 127 -101 255
-183 443 -283 33 -18 74 -39 90 -48 48 -26 154 -72 245 -106 47 -18 99 -39
115 -46 45 -20 95 -36 140 -46 39 -8 209 -49 290 -70 228 -58 947 -60 1165 -3
30 8 100 23 154 34 54 10 104 24 110 30 5 5 24 10 41 10 16 0 43 7 59 15 15 8
37 15 47 15 10 0 20 4 23 9 3 5 38 19 78 31 40 13 87 29 103 36 107 46 139 61
215 97 440 211 881 602 1150 1021 59 92 52 78 205 386 12 25 30 69 40 99 10
29 24 65 31 80 8 14 14 36 14 48 0 13 6 40 13 60 35 99 47 144 47 181 0 22 5
53 11 69 6 15 15 60 20 98 5 39 13 97 18 130 13 82 13 435 0 515 -5 36 -14 97
-19 135 -27 209 -96 454 -178 638 -12 27 -22 52 -22 55 0 4 -9 25 -21 47 -89
169 -113 212 -125 226 -8 8 -14 19 -14 23 0 25 -152 234 -270 371 -190 221
-472 449 -755 612 -85 49 -321 163 -338 163 -7 0 -21 7 -31 15 -11 8 -28 15
-39 15 -10 0 -33 6 -50 13 -53 23 -100 39 -137 47 -19 4 -60 15 -90 24 -147
46 -353 82 -535 96 -66 4 -164 13 -217 20 -71 8 -129 8 -220 0 -68 -6 -175
-15 -238 -20 -111 -9 -226 -26 -320 -48 -25 -6 -81 -18 -125 -27 -44 -9 -93
-23 -108 -31 -16 -8 -35 -14 -44 -14 -20 0 -156 -47 -223 -77 -92 -42 -159
-65 -170 -58 -7 4 -10 351 -10 1035 0 565 -3 1035 -6 1044 -6 14 -85 16 -795
16 -623 0 -791 -3 -794 -12z m3121 -3283 c27 -8 66 -15 86 -15 21 0 79 -14
130 -31 420 -138 758 -461 887 -847 17 -51 31 -102 31 -112 0 -10 7 -45 15
-77 20 -78 21 -322 0 -389 -8 -27 -15 -62 -15 -79 0 -16 -12 -61 -26 -100 -14
-38 -29 -81 -34 -95 -13 -42 -62 -133 -92 -171 -15 -20 -28 -40 -28 -44 0 -4
-13 -24 -30 -45 -16 -21 -30 -42 -30 -46 -1 -15 -190 -197 -260 -251 -145
-112 -333 -206 -465 -233 -22 -4 -67 -14 -100 -21 -37 -8 -132 -13 -250 -13
-160 0 -206 4 -295 23 -58 12 -119 29 -137 37 -17 8 -34 14 -38 14 -23 0 -223
108 -293 158 -134 96 -347 315 -383 394 -5 13 -23 46 -39 73 -52 88 -98 196
-110 260 -4 22 -12 60 -18 85 -36 149 -40 246 -17 405 24 169 80 332 155 450
14 22 27 45 30 52 14 33 143 183 221 257 129 123 255 203 439 278 111 46 149
58 218 69 31 5 75 13 97 18 69 15 296 13 351 -4z"/>
<path d="M27457 8614 c-4 -4 -7 -442 -7 -973 0 -591 -4 -972 -10 -981 -8 -13
-63 -16 -357 -20 l-348 -5 -12 -58 c-6 -32 -20 -89 -31 -125 -12 -37 -23 -80
-26 -97 -3 -16 -15 -61 -27 -100 -11 -38 -24 -90 -28 -115 -8 -48 -25 -104
-47 -158 -8 -18 -14 -44 -14 -58 0 -14 -13 -72 -29 -127 -16 -56 -34 -122 -40
-147 -6 -25 -20 -76 -31 -115 -11 -38 -20 -79 -20 -90 0 -11 -7 -33 -15 -49
-8 -15 -16 -54 -18 -85 l-2 -56 525 -5 525 -5 5 -1115 c4 -816 9 -1126 18
-1155 6 -22 12 -58 12 -80 0 -22 7 -51 15 -65 8 -14 15 -45 15 -70 1 -25 7
-63 15 -85 8 -22 15 -48 15 -57 0 -9 6 -29 14 -45 8 -15 22 -55 32 -88 10 -33
23 -71 30 -85 83 -172 121 -244 154 -290 22 -30 55 -78 74 -105 66 -96 241
-255 376 -344 89 -58 147 -89 295 -156 74 -34 226 -83 280 -92 22 -3 48 -10
59 -15 10 -5 59 -16 110 -25 50 -8 134 -22 186 -30 112 -19 660 -30 701 -15
20 8 29 23 43 74 9 34 22 77 27 93 21 62 41 131 48 170 4 22 12 49 18 60 5 11
18 52 27 90 10 39 24 90 32 115 12 41 57 192 89 300 7 25 16 60 20 77 3 18 11
35 16 38 5 4 9 15 9 27 0 18 45 185 71 263 23 67 41 133 49 179 5 27 14 54 20
60 12 12 13 66 1 66 -5 0 -22 -6 -38 -14 -15 -8 -78 -22 -139 -31 -183 -28
-545 -10 -627 31 -16 8 -34 14 -41 14 -16 0 -120 54 -187 98 -86 56 -155 158
-201 297 l-23 70 0 920 0 920 342 3 342 2 20 26 c12 15 21 38 21 53 0 14 6 46
14 71 18 58 35 125 45 175 4 22 12 49 17 60 6 11 19 58 28 105 10 47 23 96 28
110 11 27 20 62 39 150 6 30 17 71 24 90 7 19 20 69 30 110 10 41 26 107 37
145 10 39 24 88 29 110 6 22 17 63 26 91 29 97 79 88 -507 94 -283 3 -521 9
-527 13 -10 6 -13 212 -13 970 0 529 -4 967 -8 973 -8 13 -1583 30 -1595 18z"/>
<path d="M11160 7014 c-8 -2 -69 -11 -135 -19 -66 -8 -145 -20 -175 -26 -116
-22 -196 -41 -230 -54 -19 -7 -64 -21 -100 -31 -36 -10 -74 -24 -85 -31 -11
-7 -26 -13 -33 -13 -13 0 -77 -26 -237 -98 -33 -15 -127 -67 -210 -116 -476
-282 -840 -669 -1087 -1156 -106 -210 -193 -452 -241 -675 -79 -362 -92 -729
-35 -1030 6 -33 15 -80 19 -105 21 -116 45 -209 105 -405 74 -237 206 -492
399 -765 182 -258 499 -549 785 -719 58 -34 112 -67 120 -72 8 -5 36 -20 62
-33 26 -12 53 -27 60 -33 7 -5 33 -17 58 -27 25 -10 56 -24 70 -31 14 -7 53
-22 88 -34 34 -12 70 -25 80 -31 26 -14 221 -71 372 -109 25 -6 95 -19 155
-29 103 -16 334 -17 3490 -17 3147 0 3389 1 3508 17 71 10 133 20 139 24 5 4
35 10 66 15 101 14 158 27 196 43 21 9 47 16 58 16 17 0 267 80 313 100 11 5
45 19 75 31 120 47 307 139 368 180 24 16 45 29 47 29 7 0 92 66 173 133 76
65 91 99 55 128 -15 13 -127 152 -310 384 -34 44 -125 159 -200 255 -76 96
-147 187 -158 201 -94 124 -210 259 -219 256 -6 -3 -56 -38 -111 -79 -55 -41
-120 -85 -145 -98 -141 -73 -220 -110 -242 -110 -7 0 -22 -7 -32 -15 -11 -8
-29 -15 -40 -15 -22 0 -123 -22 -216 -47 -44 -12 -101 -14 -270 -11 -122 3
-228 9 -245 16 -16 6 -66 19 -110 28 -44 10 -90 23 -102 31 -12 7 -27 13 -33
13 -6 0 -54 21 -107 47 -279 134 -485 341 -614 613 -34 70 -43 92 -82 195 -8
22 -22 74 -30 115 -9 41 -21 98 -28 125 -18 69 -18 503 0 565 7 25 19 70 28
100 23 82 109 267 142 305 9 11 25 32 34 47 9 15 58 70 108 123 220 229 456
358 767 416 84 16 394 16 512 1 257 -34 535 -147 733 -299 64 -49 96 -52 118
-10 7 12 76 108 155 213 78 106 150 205 160 220 10 16 26 37 36 47 10 10 29
35 42 55 13 20 76 107 139 192 63 85 133 179 154 208 21 29 53 72 72 95 74 93
74 102 -1 153 -24 16 -59 41 -78 56 -87 67 -279 173 -509 280 -53 25 -135 57
-176 68 -32 9 -85 27 -125 43 -36 14 -129 38 -170 43 -19 3 -48 12 -65 19 -16
8 -82 21 -145 30 -63 9 -137 20 -165 26 -145 29 -723 35 -845 8 -25 -5 -76
-14 -115 -18 -105 -13 -204 -31 -255 -46 -25 -7 -81 -21 -125 -31 -44 -10 -91
-24 -105 -31 -14 -7 -33 -13 -42 -13 -18 0 -79 -21 -133 -46 -16 -7 -58 -23
-93 -35 -34 -12 -65 -26 -68 -30 -3 -5 -16 -9 -29 -9 -13 0 -26 -4 -29 -9 -7
-10 -82 -51 -94 -51 -14 0 -225 -124 -322 -189 -215 -144 -386 -300 -550 -501
-25 -30 -49 -58 -53 -61 -5 -3 -16 -18 -25 -32 -9 -14 -47 -70 -83 -124 -90
-135 -189 -317 -249 -458 -12 -27 -25 -59 -30 -70 -20 -45 -64 -175 -85 -255
-13 -47 -27 -96 -33 -110 -6 -14 -17 -72 -26 -130 -9 -58 -24 -134 -32 -170
-12 -50 -17 -142 -21 -390 -5 -311 2 -447 26 -545 5 -22 17 -80 26 -130 9 -49
22 -106 29 -125 8 -19 19 -59 26 -89 7 -30 26 -82 41 -117 16 -35 29 -68 29
-74 0 -10 16 -47 88 -200 45 -97 154 -277 227 -376 6 -9 6 -17 0 -23 -26 -24
-1285 -13 -1285 11 0 5 15 29 33 53 17 24 39 56 49 72 9 15 33 55 53 88 56 90
134 234 155 286 19 46 49 117 75 174 8 17 21 55 30 85 10 30 21 69 27 85 5 17
18 64 29 105 11 41 26 96 34 121 8 26 15 56 15 68 0 11 6 56 14 98 61 334 59
565 -8 973 -19 114 -64 299 -82 332 -8 14 -14 33 -14 41 0 8 -14 50 -31 93
-17 44 -36 92 -43 108 -12 32 -113 234 -168 336 -59 109 -205 313 -306 427
-109 124 -298 302 -410 387 -187 142 -379 258 -552 333 -19 8 -44 20 -55 26
-23 12 -152 60 -240 88 -33 11 -73 24 -90 30 -81 29 -254 64 -440 89 -115 15
-202 20 -370 19 -121 -1 -227 -3 -235 -5z m503 -1240 c32 -8 69 -14 82 -14 14
0 44 -6 67 -14 24 -7 73 -23 111 -35 37 -11 75 -25 85 -30 9 -6 49 -26 87 -44
126 -62 177 -94 290 -182 90 -70 264 -247 310 -315 17 -25 45 -65 63 -89 41
-55 163 -307 187 -386 10 -33 23 -78 30 -100 54 -168 53 -695 -1 -782 -8 -12
-14 -31 -14 -42 0 -26 -26 -108 -45 -143 -8 -14 -15 -32 -15 -40 0 -16 -91
-195 -135 -264 -52 -81 -162 -214 -243 -292 -233 -226 -524 -374 -856 -437
-75 -14 -128 -16 -315 -12 -216 6 -316 18 -401 47 -85 30 -117 40 -128 40 -18
0 -210 93 -255 124 -21 14 -40 26 -42 26 -10 0 -106 70 -180 131 -105 88 -238
228 -288 304 -14 22 -39 58 -55 80 -30 42 -115 213 -127 255 -4 14 -11 30 -15
35 -4 6 -17 44 -29 85 -12 41 -26 82 -31 91 -5 9 -11 38 -15 65 -4 27 -13 84
-21 128 -18 100 -17 278 1 381 8 44 15 94 15 110 0 44 57 240 91 312 16 35 29
66 29 70 0 10 65 133 104 199 131 217 373 442 616 571 62 33 202 93 217 93 7
0 27 6 45 14 43 18 126 41 208 57 145 29 461 31 573 3z"/>
<path d="M11155 5354 c-186 -46 -301 -94 -437 -183 -157 -102 -306 -264 -396
-429 -134 -248 -180 -613 -106 -851 8 -25 14 -54 14 -66 0 -24 55 -156 95
-230 54 -99 72 -123 196 -269 27 -32 165 -141 219 -173 123 -74 280 -138 373
-153 36 -5 78 -15 92 -20 44 -17 321 -12 400 6 357 85 585 237 785 523 34 48
116 210 124 244 3 15 11 27 16 27 6 0 10 11 10 24 0 14 5 37 11 53 41 108 60
346 35 452 -8 36 -17 86 -21 111 -8 57 -48 175 -93 270 -78 164 -260 375 -412
475 -97 64 -240 135 -310 152 -30 8 -82 21 -115 30 -86 22 -398 27 -480 7z
m210 -196 c210 -121 326 -236 443 -436 65 -109 132 -314 132 -404 1 -23 5 -63
10 -88 6 -31 4 -83 -6 -165 -21 -165 -36 -218 -95 -340 -16 -33 -29 -63 -29
-67 0 -12 -75 -124 -121 -180 -101 -125 -201 -206 -347 -282 l-94 -48 -96 17
c-88 15 -224 62 -262 89 -8 6 -33 20 -55 31 -102 49 -277 219 -352 340 -139
222 -183 452 -145 740 4 33 13 69 19 80 5 11 13 35 17 54 9 51 88 211 136 277
85 118 257 273 340 309 25 10 52 25 61 32 8 7 21 13 27 13 6 0 35 11 64 24 83
39 117 46 208 42 76 -3 91 -7 145 -38z"/>
<path d="M23679 6716 c-2 -2 -51 -9 -109 -16 -58 -6 -132 -18 -166 -26 -33 -8
-79 -14 -102 -14 -24 0 -59 -7 -79 -15 -19 -8 -46 -15 -60 -15 -13 0 -33 -5
-44 -11 -11 -6 -41 -14 -67 -19 -26 -4 -85 -23 -132 -40 -47 -18 -102 -39
-123 -47 -40 -14 -207 -94 -242 -116 -11 -6 -39 -24 -63 -39 -24 -16 -46 -28
-49 -28 -3 0 -19 -12 -37 -26 -17 -14 -62 -50 -101 -80 -112 -89 -201 -181
-290 -299 -45 -60 -85 -117 -88 -125 -4 -8 -16 -28 -27 -45 -11 -16 -24 -39
-29 -50 -5 -11 -27 -59 -50 -106 -22 -48 -41 -94 -41 -102 0 -8 -7 -20 -15
-27 -8 -7 -15 -22 -15 -34 -1 -11 -7 -32 -15 -46 -8 -14 -14 -35 -15 -47 0
-12 -6 -37 -14 -55 -8 -18 -22 -69 -31 -113 -9 -44 -23 -107 -30 -140 -7 -33
-21 -130 -30 -215 -15 -139 -16 -326 -13 -1800 l3 -1645 788 -3 c530 -1 794 1
807 8 19 10 20 40 23 1648 2 1308 5 1646 16 1682 7 25 19 70 27 100 31 116 91
222 163 290 41 39 110 90 121 90 6 0 18 4 28 10 72 41 122 50 288 50 173 0
207 -6 324 -59 47 -22 149 -112 191 -171 32 -45 69 -117 69 -135 0 -8 6 -29
14 -47 55 -133 51 22 54 -1788 2 -1530 4 -1656 19 -1667 13 -10 189 -13 799
-13 430 0 789 3 798 6 15 6 16 155 16 1593 -1 1622 -3 1708 -40 1976 -18 127
-79 383 -111 460 -4 11 -11 31 -14 45 -10 38 -94 216 -138 295 -95 168 -264
365 -422 492 -76 61 -214 153 -230 153 -8 0 -17 4 -20 10 -6 10 -165 90 -178
90 -4 0 -30 11 -57 24 -28 14 -83 35 -123 47 -40 12 -79 25 -87 30 -8 4 -51
15 -95 24 -44 10 -100 24 -124 31 -25 8 -58 14 -75 14 -17 0 -62 6 -101 14
-133 28 -330 46 -491 46 -88 0 -163 -2 -165 -4z"/>
<path d="M6650 6531 l-75 -6 -3 -2569 c-2 -2049 0 -2571 10 -2578 19 -11 1551
-10 1582 2 l26 10 0 2555 c0 1743 -3 2562 -10 2576 -10 19 -28 19 -733 17
-397 -1 -756 -4 -797 -7z"/>
<path d="M19830 6531 l-85 -6 -3 -2571 -2 -2572 57 -5 c91 -7 1350 -9 1452 -1
l91 7 0 2572 c0 2337 -1 2573 -16 2579 -19 7 -1376 4 -1494 -3z"/>
</g>
</svg>
